<?xml version="1.0" encoding="UTF-8"?><svg id="Layer_1" xmlns="http://www.w3.org/2000/svg" viewBox="0 0 457.2 217.68"><defs><style>.cls-1{fill:#b23d8e;stroke-width:0px;}</style></defs><path class="cls-1" d="m454.83,93.49c-1.86-8.92-4.89-18.52-9.41-27.17-1.49-3.63-3.39-7.09-5.79-10.31-9.76-13.12-24.19-20.58-38.88-26.98-29.07-12.66-59.23-19.95-90.6-24.09C281.01,1.09,251.63.1,222.26.01c-30.19-.09-60.49.31-90.49,4-16.45,2.02-32.8,4.67-48.84,8.88-15.67,4.12-33.27,8.71-45.82,19.42-10.14,8.65-14.84,21.93-12.77,34.24.02.83.05,1.67.1,2.5-.89,5.18-1.85,10.35-3.17,15.45-2.47,9.58-6.58,18.34-10.78,27.25-7.42,15.72-12.5,31.22-9.71,48.76,2.53,15.85,11.1,30.66,23.72,40.58,28.01,22.04,66.28,18.58,98.55,9.82,18.95-5.14,37.44-11.88,56.64-16.11,19.25-4.24,38.88-6.34,58.53-7.52,39.17-2.35,78.52-1.05,117.6-4.99,19.18-1.94,38.31-5.06,56.84-10.48,16.07-4.7,31.38-11.86,38.75-27.85,7.21-15.63,6.87-33.93,3.42-50.47Z"/></svg>