<?xml version="1.0" encoding="UTF-8"?><svg id="Layer_1" xmlns="http://www.w3.org/2000/svg" viewBox="0 0 465.01 295.08"><defs><style>.cls-1{fill:#b23d8e;stroke-width:0px;}</style></defs><path class="cls-1" d="m17.63,286.31c8.08-31.46,11.05-63.82,13.87-96.09,1.35-15.43,2.62-30.84,3.59-46.29.49-7.77.99-15.54,1.67-23.29s1.69-15.37,2.37-23.08c1.56-17.64,2.07-35.38,4.4-52.95l-.32,2.39c1.64-12.15,4.2-24.16,8.43-35.69l-16.45,2.15c12.66,25.33,24.14,51.4,39.9,75.02,4.8,7.2,10,14.14,15.51,20.81,1.99,2.41,5.89,3.1,8.76,2.31,1.52-.43,2.85-1.2,3.97-2.31,1.12-1.12,1.89-2.45,2.31-3.97,8.23-19.61,15.27-39.61,22.13-59.73,1.89-5.56,3.63-11.22,5.9-16.63l-.91,2.15c1.25-2.93,2.71-5.76,4.63-8.3l-1.41,1.82c1.04-1.33,2.19-2.54,3.52-3.59l-1.82,1.41c1.04-.79,2.15-1.44,3.35-1.95l-2.15.91c.8-.31,1.6-.56,2.43-.74l-11.39-8.68c2.82,34.62,5.63,69.23,8.45,103.85,2.82,34.7,5.65,69.41,8.47,104.11,1.59,19.55,3.18,39.09,4.77,58.64.2,2.42.87,4.6,2.64,6.36,1.56,1.56,4.12,2.74,6.36,2.64,4.55-.2,9.41-3.97,9-9-2.82-34.71-5.65-69.41-8.47-104.12s-5.64-69.34-8.46-104.01c-1.59-19.49-3.17-38.98-4.76-58.46-.24-2.92-1.19-5.25-3.55-7.07s-4.98-2.24-7.85-1.61c-15.83,3.49-20.65,21.49-25.17,34.72s-8.63,25.53-13.37,38.14c-3.07,8.19-6.32,16.3-9.71,24.36l15.04-3.97c-1.56-1.89-3.1-3.81-4.6-5.75l1.41,1.82c-16-20.76-27.83-44.13-39.27-67.6-3.36-6.89-6.71-13.79-10.13-20.65C49.13,1.18,45.08-.37,41.76.08c-3.72.5-6.22,3-7.48,6.45-10.8,29.47-10.45,61.21-13.24,92.06-.67,7.44-1.65,14.85-2.3,22.29s-1.14,15.02-1.61,22.54c-.94,14.93-2.13,29.82-3.44,44.72-1.49,17.08-2.93,34.18-5.21,51.18l.32-2.39c-2.03,15.01-4.75,29.92-8.52,44.59-1.17,4.55,1.49,9.98,6.29,11.07s9.82-1.41,11.07-6.29h0Z"/><path class="cls-1" d="m203.18,167.46c5.69,11.83,18.9,18.37,31.05,21.4,11.89,2.96,24.77,3.65,36.83,1.26,3.16-.63,6.27-1.62,9.26-2.81,4.05-1.62,7.98-3.44,11.65-5.8,7.02-4.53,14.12-10.54,18.64-17.66,4.34-6.85,5.98-15.26,4.91-23.23-1.14-8.46-5.73-15.81-13.05-20.31-5.93-3.64-13.05-5.61-19.88-6.63-7.83-1.18-15.46-1.48-23.3-.24-3.44.54-6.77,1.68-10.01,2.91-4.24,1.6-8.41,3.43-12.38,5.61-6.96,3.81-13.29,8.64-19.45,13.62-2.83,2.29-5.79,4.52-8.2,7.26-2.7,3.08-5.06,6.47-6.83,10.16-3.75,7.79-5.58,15.92-6.65,24.45-.96,7.68-1.23,15.44.14,23.08s4.57,14.65,8.84,20.82c9.45,13.65,23.25,23.41,38.87,28.8,17.42,6.01,36.31,6.61,54.56,6.06,4.34-.13,8.69-.32,13.03-.52,2.37-.11,4.66-.93,6.36-2.64,1.56-1.56,2.74-4.12,2.64-6.36-.21-4.69-3.96-9.23-9-9-15.2.7-30.5,1.34-45.62-.68l2.39.32c-8.31-1.14-16.54-3.09-24.29-6.33l2.15.91c-5.55-2.36-10.77-5.41-15.54-9.08l1.82,1.41c-4.25-3.3-8.1-7.07-11.41-11.31l1.41,1.82c-2.77-3.6-5.12-7.49-6.91-11.67l.91,2.15c-1.51-3.6-2.57-7.36-3.12-11.23l.32,2.39c-.86-6.52-.29-13.36.58-19.85l-.32,2.39c.8-5.83,2.13-11.6,4.42-17.04l-.91,2.15c1.35-3.14,3.01-6.11,5.09-8.82l-1.41,1.82c3.58-4.55,8.46-8.05,13-11.58l-1.82,1.41c6.64-5.13,13.68-9.65,21.42-12.94l-2.15.91c4.4-1.84,8.98-3.51,13.73-4.17l-2.39.32c5.5-.73,11.11-.51,16.6.22l-2.39-.32c4.99.69,9.96,1.83,14.62,3.77l-2.15-.91c2.16.92,4.25,2.02,6.11,3.45l-1.82-1.41c1.08.86,2.05,1.83,2.91,2.91l-1.41-1.82c1.02,1.33,1.84,2.76,2.5,4.3l-.91-2.15c.67,1.66,1.12,3.39,1.39,5.16l-.32-2.39c.3,2.25.29,4.51.01,6.77l.32-2.39c-.33,2.4-.96,4.72-1.88,6.95l.91-2.15c-.86,2.01-1.95,3.9-3.28,5.64l1.41-1.82c-2.9,3.69-6.5,6.96-10.21,9.82l1.82-1.41c-3.85,2.94-8.03,5.38-12.49,7.27l2.15-.91c-4.22,1.75-8.61,3.05-13.15,3.67l2.39-.32c-6.85.91-13.84.74-20.68-.17l2.39.32c-5.98-.82-11.89-2.24-17.46-4.58l2.15.91c-3.21-1.38-6.28-3.06-9.05-5.19l1.82,1.41c-1.82-1.43-3.48-3.03-4.92-4.85l1.41,1.82c-1.01-1.32-1.89-2.72-2.61-4.22-.93-1.94-3.37-3.58-5.38-4.14-2.15-.59-5.02-.33-6.94.91s-3.61,3.08-4.14,5.38c-.56,2.47-.19,4.65.91,6.94h0Z"/><path class="cls-1" d="m243.42,77.43c-11.62-13.61-23.25-27.22-34.87-40.83l-9.89-11.59c-1.43-1.67-4.24-2.64-6.36-2.64s-4.84.98-6.36,2.64-2.74,3.97-2.64,6.36,1.01,4.47,2.64,6.36c11.62,13.61,23.25,27.22,34.87,40.83l9.89,11.59c1.43,1.67,4.24,2.64,6.36,2.64s4.84-.98,6.36-2.64,2.74-3.97,2.64-6.36-1.01-4.47-2.64-6.36h0Z"/><path class="cls-1" d="m460.53,38.38c-5.68-4.23-11.62-8.12-17.92-11.36-6.63-3.41-13.74-6.37-21.11-7.72s-15.7-1.59-23.18.93c-7.81,2.64-14.49,7.5-19.72,13.84-9.05,10.98-16.24,23.72-22.12,36.63s-10.49,26.1-13.7,39.8-5.09,27.8-5.64,41.86c-.55,14.11.41,28.2,2.55,42.15s5.39,26.44,10.07,39.07c2.54,6.86,5.42,13.61,8.65,20.17,2.96,6,6.19,11.89,10.11,17.33,4.61,6.39,9.78,12.03,16.28,16.54,6.23,4.32,13.53,6.79,21.07,7.35s14.27-1.25,20.83-4.13c5.77-2.54,11.18-6.63,15.1-11.56,2.2-2.77,4.17-5.57,5.56-8.83.99-2.32,1.61-4.39.91-6.94-.57-2.09-2.19-4.35-4.14-5.38-2.09-1.1-4.62-1.66-6.94-.91-2.07.67-4.48,2.04-5.38,4.14-1.03,2.41-2.36,4.66-3.95,6.74l1.41-1.82c-1.75,2.24-3.77,4.24-6.01,5.99l1.82-1.41c-2.45,1.88-5.11,3.42-7.95,4.64l2.15-.91c-2.95,1.23-6.03,2.08-9.2,2.51l2.39-.32c-2.82.35-5.65.36-8.47,0l2.39.32c-2.72-.38-5.34-1.13-7.87-2.18l2.15.91c-3.04-1.29-5.86-2.99-8.48-4.99l1.82,1.41c-3.77-2.93-7.04-6.42-9.96-10.19l1.41,1.82c-6.78-8.86-11.8-19.08-16.13-29.32l.91,2.15c-5.3-12.61-9.26-25.76-11.85-39.18-.74-3.83-1.37-7.68-1.89-11.54l.32,2.39c-1.93-14.43-2.35-29.04-1.27-43.56.31-4.09.74-8.17,1.28-12.24l-.32,2.39c1.89-13.96,5.15-27.72,9.82-41.01,1.34-3.8,2.79-7.56,4.35-11.27l-.91,2.15c5.68-13.43,12.73-26.64,21.62-38.23l-1.41,1.82c2.42-3.12,5.08-6.03,8.2-8.45l-1.82,1.41c2.14-1.62,4.44-2.95,6.91-4l-2.15.91c2.57-1.05,5.24-1.75,8-2.12l-2.39.32c3.41-.42,6.83-.34,10.24.11l-2.39-.32c5.19.74,10.2,2.3,15.02,4.32l-2.15-.91c8.58,3.64,16.52,8.64,23.97,14.2,1.75,1.31,4.93,1.46,6.94.91s4.35-2.19,5.38-4.14c1.1-2.09,1.66-4.62.91-6.94s-2.15-3.9-4.14-5.38h0Z"/></svg>